<svg xmlns="http://www.w3.org/2000/svg" viewBox="739 384 261 76" width="261" height="76">
<style>@keyframes pulse { 0%,100% { opacity: .55; r: 5 } 50% { opacity: 1; r: 6.5 } }</style>
<defs><linearGradient id="sky" x1="0" y1="0" x2="0" y2="1"><stop offset="0" stop-color="#141132"/><stop offset="0.45" stop-color="#3a2a66"/><stop offset="0.72" stop-color="#7c4680"/><stop offset="0.9" stop-color="#c2657e"/><stop offset="1" stop-color="#e29168"/></linearGradient><linearGradient id="heroG" x1="0" y1="0" x2="1" y2="0"><stop offset="0" stop-color="#a78bfa"/><stop offset="0.55" stop-color="#7c9cff"/><stop offset="1" stop-color="#22d3ee"/></linearGradient><linearGradient id="fade" x1="0" y1="0" x2="1" y2="0"><stop offset="0" stop-color="#0a0e15" stop-opacity="0.93"/><stop offset="0.6" stop-color="#0a0e15" stop-opacity="0.35"/><stop offset="1" stop-color="#0a0e15" stop-opacity="0.05"/></linearGradient><linearGradient id="btn" x1="0" y1="0" x2="1" y2="0"><stop offset="0" stop-color="#7c5cff"/><stop offset="1" stop-color="#4d8dff"/></linearGradient><linearGradient id="ring" x1="0" y1="0" x2="1" y2="1"><stop offset="0" stop-color="#a78bfa"/><stop offset="1" stop-color="#22d3ee"/></linearGradient><linearGradient id="qsky" x1="0" y1="0" x2="0" y2="1"><stop offset="0" stop-color="#1b1638"/><stop offset="1" stop-color="#4b2f6e"/></linearGradient></defs>
<g transform="translate(0 384)"><rect x="0.0" y="0.0" width="1000.0" height="76.0" rx="0" fill="#0c1119"/>
<line x1="0" y1="0" x2="1000" y2="0" stroke="#263140"/>
<line x1="0" y1="75" x2="1000" y2="75" stroke="#263140"/>
<rect x="48.0" y="18.0" width="40.0" height="40.0" rx="10" fill="#161e2b" stroke="#263140" stroke-width="1"/>
<rect x="59.0" y="30.0" width="18.0" height="16.0" rx="3" fill="none" stroke="#58a6ff" stroke-width="2"/>
<rect x="59.0" y="26.0" width="18.0" height="6.0" rx="2" fill="none" stroke="#58a6ff" stroke-width="2"/>
<text x="102.0" y="40" font-family="Inter, 'Segoe UI', Helvetica, Arial, sans-serif" font-size="20" fill="#f0f6fc" font-weight="800" text-anchor="start" font-style="normal">389</text>
<text x="102.0" y="58" font-family="Inter, 'Segoe UI', Helvetica, Arial, sans-serif" font-size="10.5" fill="#8b949e" font-weight="400" text-anchor="start" font-style="normal">GitHub Contributions</text>
<line x1="261" y1="16" x2="261" y2="60" stroke="#263140"/>
<rect x="287.0" y="18.0" width="40.0" height="40.0" rx="10" fill="#161e2b" stroke="#263140" stroke-width="1"/>
<rect x="298.0" y="30.0" width="18.0" height="16.0" rx="3" fill="none" stroke="#a78bfa" stroke-width="2"/>
<circle cx="304.0" cy="38" r="2.5" fill="#a78bfa"/>
<text x="341.0" y="40" font-family="Inter, 'Segoe UI', Helvetica, Arial, sans-serif" font-size="20" fill="#f0f6fc" font-weight="800" text-anchor="start" font-style="normal">27</text>
<text x="341.0" y="58" font-family="Inter, 'Segoe UI', Helvetica, Arial, sans-serif" font-size="10.5" fill="#8b949e" font-weight="400" text-anchor="start" font-style="normal">Public Repositories</text>
<line x1="500" y1="16" x2="500" y2="60" stroke="#263140"/>
<rect x="526.0" y="18.0" width="40.0" height="40.0" rx="10" fill="#161e2b" stroke="#263140" stroke-width="1"/>
<path d="M 546.0 28 L 556.0 34 L 556.0 44 L 546.0 50 L 536.0 44 L 536.0 34 Z" fill="none" stroke="#22d3ee" stroke-width="2"/>
<text x="580.0" y="40" font-family="Inter, 'Segoe UI', Helvetica, Arial, sans-serif" font-size="20" fill="#f0f6fc" font-weight="800" text-anchor="start" font-style="normal">4</text>
<text x="580.0" y="58" font-family="Inter, 'Segoe UI', Helvetica, Arial, sans-serif" font-size="10.5" fill="#8b949e" font-weight="400" text-anchor="start" font-style="normal">Featured Projects</text>
<line x1="739" y1="16" x2="739" y2="60" stroke="#263140"/>
<rect x="765.0" y="18.0" width="40.0" height="40.0" rx="10" fill="#161e2b" stroke="#263140" stroke-width="1"/>
<path d="M 788.0 30 L 780.0 38 L 788.0 46" fill="none" stroke="#ffa116" stroke-width="2" stroke-linecap="round" stroke-linejoin="round"/><path d="M 782.0 30 L 790.0 38 L 782.0 46" fill="none" stroke="#ffa116" stroke-width="2" stroke-linecap="round" stroke-linejoin="round"/>
<text x="819.0" y="40" font-family="Inter, 'Segoe UI', Helvetica, Arial, sans-serif" font-size="20" fill="#f0f6fc" font-weight="800" text-anchor="start" font-style="normal">182</text>
<text x="819.0" y="58" font-family="Inter, 'Segoe UI', Helvetica, Arial, sans-serif" font-size="10.5" fill="#8b949e" font-weight="400" text-anchor="start" font-style="normal">LeetCode Solved</text></g>
</svg>
